<svg id="instagram_3_" data-name="instagram (3)" xmlns="http://www.w3.org/2000/svg" xmlns:xlink="http://www.w3.org/1999/xlink" width="20.766" height="20.766" viewBox="0 0 20.766 20.766">
  <defs>
    <linearGradient id="linear-gradient" x1="0.5" y1="0.008" x2="0.5" y2="0.998" gradientUnits="objectBoundingBox">
      <stop offset="0" stop-color="#e09b3d"/>
      <stop offset="0.3" stop-color="#c74c4d"/>
      <stop offset="0.6" stop-color="#c21975"/>
      <stop offset="1" stop-color="#7024c4"/>
    </linearGradient>
    <linearGradient id="linear-gradient-2" y1="-0.451" y2="1.462" xlink:href="#linear-gradient"/>
    <linearGradient id="linear-gradient-3" y1="-1.396" y2="6.586" xlink:href="#linear-gradient"/>
  </defs>
  <path id="Path_1478" data-name="Path 1478" d="M14.58,0H6.186A6.193,6.193,0,0,0,0,6.186V14.58a6.193,6.193,0,0,0,6.186,6.186H14.58a6.193,6.193,0,0,0,6.186-6.186V6.186A6.193,6.193,0,0,0,14.58,0Zm4.1,14.58a4.1,4.1,0,0,1-4.1,4.1H6.186a4.1,4.1,0,0,1-4.1-4.1V6.186a4.1,4.1,0,0,1,4.1-4.1H14.58a4.1,4.1,0,0,1,4.1,4.1V14.58Z" fill="url(#linear-gradient)"/>
  <path id="Path_1479" data-name="Path 1479" d="M138.371,133a5.371,5.371,0,1,0,5.371,5.371A5.377,5.377,0,0,0,138.371,133Zm0,8.653a3.282,3.282,0,1,1,3.282-3.282A3.282,3.282,0,0,1,138.371,141.653Z" transform="translate(-127.988 -127.988)" fill="url(#linear-gradient-2)"/>
  <circle id="Ellipse_26" data-name="Ellipse 26" cx="1.287" cy="1.287" r="1.287" transform="translate(14.477 3.766)" fill="url(#linear-gradient-3)"/>
</svg>
